<svg width="24" height="36" viewBox="0 0 24 36" fill="none" xmlns="http://www.w3.org/2000/svg">
<path d="M11.9388 4.90909V0L5.96939 6.54546L11.9388 13.0909V8.18182C16.8784 8.18182 20.8929 12.5836 20.8929 18C20.8929 19.6527 20.5198 21.2236 19.8482 22.5818L22.027 24.9709C23.1911 22.9582 23.8775 20.5691 23.8775 18C23.8775 10.7673 18.5349 4.90909 11.9388 4.90909ZM11.9388 27.8182C6.99911 27.8182 2.98469 23.4164 2.98469 18C2.98469 16.3473 3.35778 14.7764 4.02934 13.4182L1.85051 11.0291C0.686479 13.0418 0 15.4309 0 18C0 25.2327 5.3426 31.0909 11.9388 31.0909V36L17.9082 29.4545L11.9388 22.9091V27.8182Z" fill="#C1C1C1"/>
</svg>
