<svg width="26" height="32" viewBox="0 0 26 32" fill="none" xmlns="http://www.w3.org/2000/svg">
<path d="M13.0793 5.00356C14.694 5.00356 16.0025 6.60938 16.0025 8.59104C16.0025 10.5727 14.694 12.1785 13.0793 12.1785C11.4647 12.1785 10.1562 10.5727 10.1562 8.59104C10.1562 6.60938 11.4647 5.00356 13.0793 5.00356ZM13.0793 20.3785C17.2135 20.3785 21.5703 22.8726 21.5703 23.9659V25.8451H4.58835V23.9659C4.58835 22.8726 8.9452 20.3785 13.0793 20.3785ZM13.0793 1.75775C10.0031 1.75775 7.51147 4.81565 7.51147 8.59104C7.51147 12.3664 10.0031 15.4243 13.0793 15.4243C16.1556 15.4243 18.6472 12.3664 18.6472 8.59104C18.6472 4.81565 16.1556 1.75775 13.0793 1.75775ZM13.0793 17.1326C9.36279 17.1326 1.94361 19.4218 1.94361 23.9659V29.0909H24.2151V23.9659C24.2151 19.4218 16.7959 17.1326 13.0793 17.1326Z" fill="#761BBD"/>
</svg>
