<svg width="19" height="31" viewBox="0 0 19 31" fill="none" xmlns="http://www.w3.org/2000/svg">
<path d="M16.15 0H2.85C1.27656 0 0 1.30176 0 2.90625V28.0938C0 29.6982 1.27656 31 2.85 31H16.15C17.7234 31 19 29.6982 19 28.0938V2.90625C19 1.30176 17.7234 0 16.15 0ZM9.5 29.0625C8.44906 29.0625 7.6 28.1967 7.6 27.125C7.6 26.0533 8.44906 25.1875 9.5 25.1875C10.5509 25.1875 11.4 26.0533 11.4 27.125C11.4 28.1967 10.5509 29.0625 9.5 29.0625ZM16.15 22.5234C16.15 22.923 15.8294 23.25 15.4375 23.25H3.5625C3.17062 23.25 2.85 22.923 2.85 22.5234V3.63281C2.85 3.2332 3.17062 2.90625 3.5625 2.90625H15.4375C15.8294 2.90625 16.15 3.2332 16.15 3.63281V22.5234Z" fill="#761BBD"/>
</svg>
