<svg width="59" height="54" viewBox="0 0 59 54" fill="none" xmlns="http://www.w3.org/2000/svg">
<path fill-rule="evenodd" clip-rule="evenodd" d="M1.12657 18.0892C-0.375524 23.9502 -0.375522 30.0498 1.12657 35.9108C3.29579 44.3748 10.5165 50.9835 19.7641 52.9689C26.1678 54.3437 32.8322 54.3437 39.2359 52.9689C48.4835 50.9835 55.7043 44.3747 57.8734 35.9108C59.3755 30.0498 59.3755 23.9502 57.8734 18.0893C55.7043 9.62523 48.4835 3.01644 39.2359 1.03113C32.8322 -0.34371 26.1678 -0.34371 19.7641 1.03113C10.5165 3.01644 3.29578 9.62523 1.12657 18.0892Z" fill="#470CA6"/>
<path fill-rule="evenodd" clip-rule="evenodd" d="M33.5854 29.4316C32.8668 30.1217 31.6161 30.1934 30.7918 29.5918L18.6789 20.7497C18.2476 20.4348 18 19.9791 18 19.5C18 19.0209 18.2476 18.5652 18.6789 18.2503L30.7918 9.40824C31.6161 8.80655 32.8668 8.87828 33.5854 9.56846C34.304 10.2586 34.2184 11.3059 33.3941 11.9076L25.2643 17.8421H49.02C50.1136 17.8421 51 18.5844 51 19.5C51 20.4156 50.1136 21.1579 49.02 21.1579H25.2643L33.3941 27.0925C34.2184 27.6941 34.304 28.7414 33.5854 29.4316Z" fill="white"/>
</svg>
