<svg width="27" height="29" viewBox="0 0 27 29" fill="none" xmlns="http://www.w3.org/2000/svg">
<path d="M13.503 7.06477C9.67211 7.06477 6.5821 10.3844 6.5821 14.5C6.5821 18.6156 9.67211 21.9352 13.503 21.9352C17.3339 21.9352 20.4239 18.6156 20.4239 14.5C20.4239 10.3844 17.3339 7.06477 13.503 7.06477ZM13.503 19.3339C11.0274 19.3339 9.00351 17.1661 9.00351 14.5C9.00351 11.8339 11.0214 9.66613 13.503 9.66613C15.9847 9.66613 18.0025 11.8339 18.0025 14.5C18.0025 17.1661 15.9786 19.3339 13.503 19.3339ZM22.3213 6.76063C22.3213 7.72481 21.5985 8.49487 20.707 8.49487C19.8095 8.49487 19.0927 7.71834 19.0927 6.76063C19.0927 5.80291 19.8156 5.02639 20.707 5.02639C21.5985 5.02639 22.3213 5.80291 22.3213 6.76063ZM26.9051 8.52075C26.8027 6.19765 26.3088 4.13985 24.7247 2.44444C23.1465 0.749023 21.2311 0.218398 19.0687 0.101919C16.84 -0.033973 10.16 -0.033973 7.93134 0.101919C5.77496 0.211927 3.85951 0.742553 2.27535 2.43797C0.691188 4.13338 0.203291 6.19117 0.0948689 8.51428C-0.031623 10.9086 -0.031623 18.085 0.0948689 20.4792C0.197267 22.8024 0.691188 24.8601 2.27535 26.5556C3.85951 28.251 5.76893 28.7816 7.93134 28.8981C10.16 29.034 16.84 29.034 19.0687 28.8981C21.2311 28.7881 23.1465 28.2574 24.7247 26.5556C26.3028 24.8601 26.7967 22.8024 26.9051 20.4792C27.0316 18.085 27.0316 10.915 26.9051 8.52075ZM24.0259 23.0483C23.5561 24.3166 22.6466 25.2937 21.46 25.8049C19.683 26.562 15.4666 26.3873 13.503 26.3873C11.5394 26.3873 7.31695 26.5556 5.54607 25.8049C4.36548 25.3002 3.45594 24.323 2.98009 23.0483C2.27535 21.1393 2.43798 16.6096 2.43798 14.5C2.43798 12.3904 2.28137 7.85423 2.98009 5.95175C3.44992 4.68342 4.35945 3.70629 5.54607 3.19508C7.32298 2.43797 11.5394 2.61269 13.503 2.61269C15.4666 2.61269 19.6891 2.44444 21.46 3.19508C22.6405 3.69982 23.5501 4.67695 24.0259 5.95175C24.7307 7.8607 24.568 12.3904 24.568 14.5C24.568 16.6096 24.7307 21.1458 24.0259 23.0483Z" fill="#761BBD"/>
</svg>
